<?xml version="1.0" standalone="no"?>
<!DOCTYPE svg PUBLIC "-//W3C//DTD SVG 20010904//EN"
 "http://www.w3.org/TR/2001/REC-SVG-20010904/DTD/svg10.dtd">
<svg version="1.0" xmlns="http://www.w3.org/2000/svg"
 width="52.000000pt" height="47.000000pt" viewBox="0 0 52.000000 47.000000"
 preserveAspectRatio="xMidYMid meet">

<g transform="translate(0.000000,47.000000) scale(0.100000,-0.100000)"
fill="#000000" stroke="none">
<path d="M214 456 c-18 -8 -36 -22 -42 -32 -7 -12 -24 -19 -52 -20 -51 -3 -97
-41 -106 -90 -7 -40 18 -96 51 -114 24 -13 25 -18 25 -102 l0 -88 170 0 170 0
0 83 c0 82 0 82 36 112 48 40 58 105 23 149 -26 33 -82 59 -109 51 -12 -4 -23
1 -32 14 -16 23 -65 51 -88 51 -8 -1 -29 -7 -46 -14z m102 -51 c20 -20 25 -34
22 -63 -2 -29 1 -37 15 -40 12 -3 17 3 17 20 0 13 6 32 13 42 25 34 97 -18 97
-69 0 -28 -27 -64 -56 -75 -20 -8 -24 -16 -24 -55 l0 -45 -140 0 -140 0 0 45
c0 38 -4 47 -23 54 -34 13 -51 39 -51 77 0 68 85 103 133 55 28 -28 52 -10 26
19 -20 22 -20 22 4 41 33 27 77 24 107 -6z m84 -345 c0 -19 -7 -20 -140 -20
-133 0 -140 1 -140 20 0 19 7 20 140 20 133 0 140 -1 140 -20z"/>
<path d="M190 195 c0 -24 5 -35 15 -35 10 0 15 11 15 35 0 24 -5 35 -15 35
-10 0 -15 -11 -15 -35z"/>
<path d="M300 195 c0 -24 5 -35 15 -35 10 0 15 11 15 35 0 24 -5 35 -15 35
-10 0 -15 -11 -15 -35z"/>
</g>
</svg>
